<?xml version="1.0" encoding="utf-8"?>
<!-- Generator: Adobe Illustrator 22.1.0, SVG Export Plug-In . SVG Version: 6.00 Build 0)  -->
<svg version="1.1" xmlns="http://www.w3.org/2000/svg" xmlns:xlink="http://www.w3.org/1999/xlink" x="0px" y="0px"
	 viewBox="0 0 400 400" style="enable-background:new 0 0 400 400;" xml:space="preserve">
<style type="text/css">
	.st0{opacity:0.8;fill:#FFFFFF;}
	.st1{opacity:0.6;fill:#2C3033;}
	.st2{fill:#FEFCFD;}
	.st3{fill:#FFFFFF;}
</style>
<g id="Laag_2">
</g>
<g id="Laag_1">
	<path class="st0" d="M178.1,306.2h41.9c7.4,0,13.4-6,13.4-13.4l0,0h-68.7l0,0C164.6,300.2,170.6,306.2,178.1,306.2z"/>
	<path class="st0" d="M173.9,316.3h50.2c5.1,0,9.2,4.1,9.2,9.2v18.7h-68.7v-18.7C164.6,320.4,168.8,316.3,173.9,316.3z"/>
	
		<rect x="183.3" y="306.2" transform="matrix(-1 -4.493484e-11 4.493484e-11 -1 397.9759 622.4717)" class="st1" width="31.3" height="10.1"/>
	<path class="st2" d="M60.9,214c0,19.6,7.7,35.4,17.3,35.4h20.7v-70.9H78.2C68.6,178.6,60.9,194.4,60.9,214z M81.6,214
		c0-9.8,1.9-18.6,5.1-25.1l1.1,8.4c0,0,6.1,47.2,6.5,50.9C86.9,244,81.6,230.3,81.6,214z"/>
	<path class="st0" d="M107,148l18,8l39.5-85c2.3-4.9,0.2-10.7-4.7-13l0,0c-4.9-2.3-10.7-0.2-13,4.7L107,148z"/>
	<path class="st0" d="M265,156l19,6l42.4-91c2.3-4.9,0.2-10.7-4.7-13l0,0c-4.9-2.3-10.7-0.2-13,4.7L265,156z"/>
	<path class="st1" d="M128.6,400c1.5-4.3,2.3-8.9,2.3-13.7c0-22.7-18.4-41.1-41.1-41.1c-22.7,0-41.1,18.4-41.1,41.1
		c0,4.8,0.8,9.4,2.3,13.7H128.6z"/>
	<polygon class="st0" points="237.9,127.8 214,151.7 144.8,151.7 137.2,127.7 	"/>
	<path class="st3" d="M84.3,400h172.3l4.2-40.3c1.6-15.6-10.6-29.2-26.3-29.2H106.4c-15.7,0-27.9,13.6-26.3,29.2L84.3,400z"/>
	<path class="st0" d="M305,345.3c6.2-0.6,12.2,0.2,17.7,2.2c-3.8-9.8-13.3-16.9-24.7-16.9H122.7c-15.7,0-27.9,13.6-26.3,29.2
		l4.2,40.3h169.6c-1.1-3.1-1.9-6.4-2.2-9.9C265.9,367.5,282.5,347.5,305,345.3z"/>
	<path class="st1" d="M270.3,400h77.4c2-5.5,2.8-11.5,2.2-17.8c-2.2-22.6-22.2-39.1-44.8-36.9c-22.6,2.2-39.1,22.2-36.9,44.8
		C268.4,393.6,269.2,396.9,270.3,400z"/>
	<path class="st2" d="M299.1,178.6h20.7l0,0c-9.5,0-17.3,15.9-17.3,35.4s7.7,35.4,17.3,35.4l0,0h-20.7c-9.5,0-17.3-15.9-17.3-35.4
		C281.9,194.4,289.6,178.6,299.1,178.6z"/>
	<ellipse class="st0" cx="319.8" cy="214" rx="17.3" ry="35.4"/>
	<g>
		<path class="st3" d="M166.4,196.2c0-12-9.7-21.7-21.7-21.7c-12,0-21.7,9.7-21.7,21.7c0,12,9.7,21.7,21.7,21.7
			C156.7,217.9,166.4,208.2,166.4,196.2z"/>
		<path class="st3" d="M239.4,229.6c-3.2-2.3-7.6-1.6-9.9,1.5c-4,5.5-17.5,11.1-35.4,11.1c-17.9,0-31.3-5.6-35.4-11.1
			c-2.3-3.2-6.8-3.9-9.9-1.5c-3.2,2.3-3.8,6.8-1.5,9.9c7.5,10.2,25.9,16.9,46.8,16.9c20.9,0,39.3-6.6,46.8-16.9
			C243.2,236.4,242.6,231.9,239.4,229.6z"/>
		<path class="st3" d="M243.4,174.6c-12,0-21.7,9.7-21.7,21.7c0,12,9.7,21.7,21.7,21.7c12,0,21.7-9.7,21.7-21.7
			C265.1,184.3,255.4,174.6,243.4,174.6z"/>
		<path class="st3" d="M269.9,127.7H137.2l100.7,0.1L214,151.7h-69.1l-7.7-24h-9.1c-27.9,0-48.5,25.8-42.5,53l10,78
			c4.4,19.9,22.1,34.1,42.5,34.1h121.8c20.4,0,38.1-14.2,42.5-34.1l3.2-24.7c-1.9-5.7-3-12.6-3-20c0-13.9,3.9-26,9.6-31.8l0.2-1.5
			C318.4,153.5,297.7,127.7,269.9,127.7z M276.3,248.8c-3.5,14.6-16.2,24.7-31.3,24.7h-92.2c-15,0-27.8-10.1-31.2-24.7l-9.9-77.5
			c0-22.4,174.5-22.4,174.5,0L276.3,248.8z"/>
	</g>
	<path class="st1" d="M111.7,171.3l9.9,77.5c3.5,14.6,16.2,24.7,31.2,24.7h92.2c15,0,27.8-10.1,31.3-24.7l9.9-77.5
		C286.3,148.9,111.7,148.9,111.7,171.3z M243.4,217.9c-12,0-21.7-9.7-21.7-21.7c0-12,9.7-21.7,21.7-21.7c12,0,21.7,9.7,21.7,21.7
		C265.1,208.2,255.4,217.9,243.4,217.9z M148.8,229.6c3.2-2.3,7.6-1.6,9.9,1.5c4,5.5,17.5,11.1,35.4,11.1c17.9,0,31.3-5.6,35.4-11.1
		c2.3-3.2,6.8-3.8,9.9-1.5c3.2,2.3,3.8,6.8,1.5,9.9c-7.5,10.2-25.9,16.9-46.8,16.9c-20.9,0-39.3-6.6-46.8-16.9
		C144.9,236.4,145.6,231.9,148.8,229.6z M123.1,196.2c0-12,9.7-21.7,21.7-21.7c12,0,21.7,9.7,21.7,21.7c0,12-9.7,21.7-21.7,21.7
		C132.8,217.9,123.1,208.2,123.1,196.2z"/>
	<path class="st0" d="M94.2,248.2c-7.3-4.1-12.7-17.9-12.7-34.2c0-9.8,1.9-18.6,5.1-25.1l1.1,8.4C87.7,197.3,93.8,244.5,94.2,248.2z
		"/>
</g>
</svg>
