<svg xmlns="http://www.w3.org/2000/svg" width="181" height="73.959" viewBox="0 0 181 73.959">
  <g id="logo_soften" transform="translate(-0.001)">
    <path id="Caminho_1774" data-name="Caminho 1774" d="M64.59,31.861c-3.7-1.394-5.279-2.667-5.279-5.153,0-1.819,1.394-4,5.032-4a9.6,9.6,0,0,1,5.032,1.273l.97-2.789a11.881,11.881,0,0,0-5.819-1.333c-5.153,0-8.608,3.092-8.608,7.215,0,3.7,2.667,6,7.032,7.578,3.576,1.333,5.032,2.789,5.032,5.279,0,2.729-2.06,4.546-5.581,4.546a11.233,11.233,0,0,1-6.122-1.759l-.905,2.91a13.474,13.474,0,0,0,6.788,1.759c6.305,0,9.275-3.576,9.275-7.693-.121-3.94-2.364-6.062-6.851-7.821Zm18.672-4.486c-5.279,0-9.457,3.759-9.457,10.124,0,6.062,4,9.821,9.154,9.821h.06c4.546,0,9.457-3.092,9.457-10.185C92.416,31.376,88.718,27.375,83.262,27.375Zm-.243,17.4c-3.4,0-5.759-3.153-5.759-7.335,0-3.637,1.759-7.391,5.819-7.391,4.122,0,5.7,4.062,5.7,7.275.06,4.365-2.425,7.456-5.759,7.456ZM102.9,22.162a5.248,5.248,0,0,1,2.243.424l.424-2.667a7.4,7.4,0,0,0-2.97-.546,6.486,6.486,0,0,0-4.607,1.759A8.931,8.931,0,0,0,95.75,27.8v.06H93.084a6.8,6.8,0,0,1,2.667,2.667v16.49h3.456V30.467h6.122V27.8H99.145v-.183c.06-2.849.849-5.456,3.759-5.456Zm7.759,1.091-3.4,1.1v16.6a7.8,7.8,0,0,0,1.333,5.032,4.969,4.969,0,0,0,3.759,1.456,9.378,9.378,0,0,0,3.092-.486l-.183-2.667a5.76,5.76,0,0,1-2,.243c-1.94,0-2.606-1.333-2.606-3.7v-10.3h4.978V27.86h-4.978V23.252Zm14.913,4.122c-5.581,0-9.032,4.546-9.032,10.367,0,5.759,3.576,9.639,9.4,9.639a16.14,16.14,0,0,0,6.426-1.207l-.6-2.425a13.575,13.575,0,0,1-5.279.97c-3.456,0-6.426-1.94-6.486-6.608l13.4.06a11.339,11.339,0,0,0,.121-1.637c-.06-3.7-1.7-9.154-7.942-9.154ZM119.994,35.5c.3-2.425,1.759-5.638,5.335-5.638,3.88,0,4.789,3.456,4.789,5.638Zm26.068-8.124a6.952,6.952,0,0,0-6.305,3.576h-.06l-.183-3.092h-3.092c.121,1.576.183,3.152.183,5.153V46.955h3.456V35.437A4.645,4.645,0,0,1,140.3,33.8a5.021,5.021,0,0,1,4.668-3.576c3.273,0,4.426,2.606,4.426,5.7V46.956h3.456v-11.4c-.057-6.608-4.119-8.184-6.786-8.184Zm-90.02,35.1a4.487,4.487,0,0,0,2.3.667c1.333,0,2.06-.667,2.06-1.759,0-.905-.546-1.508-1.879-2-1.637-.6-2.606-1.456-2.606-2.91a2.9,2.9,0,0,1,3.213-2.789,4.45,4.45,0,0,1,2.183.486l-.364,1.091a3.732,3.732,0,0,0-1.879-.486c-1.333,0-1.879.849-1.879,1.508,0,.97.6,1.394,2,1.94,1.7.667,2.546,1.508,2.546,2.97,0,1.576-1.152,2.91-3.456,2.91a5.073,5.073,0,0,1-2.546-.667Z" transform="translate(28.149 9.848)" fill="#231f20" fill-rule="evenodd"/>
    <path id="Caminho_1775" data-name="Caminho 1775" d="M60.72,42.28h1.273V52.465H60.72Z" transform="translate(30.868 21.494)" fill="#231f20"/>
    <path id="Caminho_1776" data-name="Caminho 1776" d="M63.073,50.916a4.487,4.487,0,0,0,2.3.667c1.333,0,2.06-.667,2.06-1.759,0-.905-.546-1.508-1.879-2-1.637-.6-2.606-1.456-2.606-2.91a2.9,2.9,0,0,1,3.213-2.789,4.45,4.45,0,0,1,2.183.486L67.982,43.7a3.732,3.732,0,0,0-1.879-.486c-1.333,0-1.879.849-1.879,1.508,0,.97.6,1.394,2,1.94,1.7.667,2.546,1.508,2.546,2.97,0,1.576-1.152,2.91-3.456,2.91a5.073,5.073,0,0,1-2.546-.667Zm9.4-7.459H69.378V42.367h7.391v1.091H73.737V52.49H72.464Zm10.548,4.3H79.2V51.4h4.3V52.49H77.865V42.367h5.4v1.091H79.2V46.67h3.819Zm10.548.3c-.06-1.394-.183-3.153-.183-4.365-.364,1.152-.727,2.486-1.273,3.88l-1.759,4.91h-.97L87.745,47.64q-.653-1.947-1.152-3.94c0,1.273-.121,2.97-.183,4.486l-.243,4.365H84.961l.727-10.185h1.637l1.7,4.91c.424,1.273.727,2.364,1.03,3.4a26.974,26.974,0,0,1,1.091-3.4l1.759-4.91h1.637l.6,10.185H93.868Zm5.092,1.273-1.03,3.213H96.295l3.4-10.185h1.582l3.4,10.185h-1.394l-1.091-3.213Zm3.273-1.03-.97-2.91c-.183-.667-.364-1.273-.486-1.879h-.06c-.121.6-.3,1.207-.486,1.819l-.97,2.97Zm4,2.608a4.487,4.487,0,0,0,2.3.667c1.333,0,2.06-.667,2.06-1.759,0-.905-.546-1.508-1.879-2-1.637-.6-2.606-1.456-2.606-2.91a2.9,2.9,0,0,1,3.213-2.789,4.45,4.45,0,0,1,2.183.486l-.364,1.091a3.732,3.732,0,0,0-1.879-.486c-1.333,0-1.879.849-1.879,1.508,0,.97.6,1.394,2,1.94,1.7.667,2.546,1.508,2.546,2.97,0,1.576-1.152,2.91-3.456,2.91a5.073,5.073,0,0,1-2.546-.667Z" transform="translate(31.909 21.407)" fill="#231f20" fill-rule="evenodd"/>
    <path id="Caminho_1777" data-name="Caminho 1777" d="M54.42,0H43.258C38.045,0,31.921,2.667,29.683,5.883L.837,47.527c-2.243,3.273.183,5.883,5.456,5.883H17.386Z" transform="translate(0)" fill="#00adee" fill-rule="evenodd"/>
    <path id="Caminho_1778" data-name="Caminho 1778" d="M46.945,8.8,9.839,62.331c23.825-.06,51.285-12,61.531-26.734C81.555,20.869,70.643,8.923,46.945,8.8Z" transform="translate(5.001 4.475)" fill="#034ea2" fill-rule="evenodd"/>
  </g>
</svg>
